<?xml version="1.0" standalone="no"?><!DOCTYPE svg PUBLIC "-//W3C//DTD SVG 1.1//EN" "http://www.w3.org/Graphics/SVG/1.1/DTD/svg11.dtd"><svg t="1587866515667" class="icon" viewBox="0 0 1024 1024" version="1.1" xmlns="http://www.w3.org/2000/svg" p-id="3316" xmlns:xlink="http://www.w3.org/1999/xlink" width="200" height="200"><defs><style type="text/css"></style></defs><path d="M199.802 258.664a129.54 129.332 0 1 0 518.16 0 129.54 129.332 0 1 0-518.16 0Z" p-id="3317"></path><path d="M642.198 851.598c0-107.574 81.714-196.542 186.76-208.99-55.114-57.56-131.502-101.962-220.06-126.092-45.126 33.076-97.626 52.078-153.614 52.078-55.992 0-108.492-19.002-153.616-52.078C150.754 557.626 35.172 657.592 0 781.208l0 158.562C8.404 969.358 21.368 997.602 38.356 1024l694.376 0C678.03 985.894 642.198 922.826 642.198 851.598z" p-id="3318"></path><path d="M854 682.546c-93.888 0-170 75.992-170 169.728s76.112 169.728 170 169.728 170-75.992 170-169.728S947.888 682.546 854 682.546zM766.322 939.814c-0.99-0.988-1.87-2.04-2.696-3.12 2.028 2.11 4.1 4.174 6.268 6.14C768.652 941.924 767.448 940.938 766.322 939.814zM948 882.226l-64 0 0 63.898c0 16.542-13.432 29.954-30 29.954s-30-13.41-30-29.954l0-63.898-64 0c-16.568 0-30-13.41-30-29.952s13.432-29.952 30-29.952l64 0 0-63.898c0-16.542 13.432-29.952 30-29.952s30 13.41 30 29.952l0 63.898 64 0c16.568 0 30 13.41 30 29.952S964.568 882.226 948 882.226z" p-id="3319"></path></svg>