<?xml version="1.0" standalone="no"?><!DOCTYPE svg PUBLIC "-//W3C//DTD SVG 1.1//EN" "http://www.w3.org/Graphics/SVG/1.1/DTD/svg11.dtd"><svg t="1587866388515" class="icon" viewBox="0 0 1024 1024" version="1.1" xmlns="http://www.w3.org/2000/svg" p-id="1921" xmlns:xlink="http://www.w3.org/1999/xlink" width="200" height="200"><defs><style type="text/css"></style></defs><path d="M478 608s0-0.1 0 0c4.3-8.7 9.1-17.2 14.2-25.4 0 0 0-0.1 0.1-0.1 0.9-1.4 1.8-2.9 2.8-4.3 0.2-0.3 0.5-0.7 0.7-1 0.9-1.3 1.7-2.6 2.6-3.9 0.3-0.5 0.6-0.9 0.9-1.4 0.8-1.2 1.7-2.4 2.6-3.7 0.3-0.5 0.7-0.9 1-1.4 2.6-3.6 5.4-7.2 8.2-10.7 0.7-0.8 1.3-1.6 2-2.5 0.6-0.8 1.3-1.6 2-2.4 0.7-0.9 1.5-1.8 2.2-2.7 0.6-0.7 1.3-1.5 1.9-2.2 0.8-0.9 1.7-1.9 2.5-2.8 0.6-0.7 1.2-1.3 1.8-2 1-1 1.9-2.1 2.9-3.1 0.5-0.5 1-1.1 1.5-1.6 1.5-1.6 3-3.1 4.5-4.6 26.4-26.4 57.2-47.2 91.5-61.7 2-0.8 4-1.7 6-2.4 0.6-0.2 1.2-0.5 1.8-0.7 1.5-0.6 3-1.1 4.4-1.7 0.6-0.2 1.2-0.5 1.8-0.7 2-0.7 4-1.4 5.9-2.1 0.4-0.1 0.8-0.2 1.1-0.4 1.6-0.5 3.3-1.1 4.9-1.6 0.8-0.2 1.5-0.5 2.3-0.7l3.9-1.2c0.8-0.2 1.6-0.5 2.4-0.7l5.7-1.5c0.8-0.2 1.7-0.4 2.5-0.6l3.6-0.9c1-0.2 2-0.5 3-0.7 1-0.2 2.1-0.5 3.1-0.7 1-0.2 2.1-0.4 3.1-0.6 1.5-0.3 3-0.6 4.4-0.8 1.4-0.3 2.9-0.5 4.4-0.8 0.9-0.1 1.8-0.3 2.7-0.4 1.2-0.2 2.4-0.4 3.6-0.5 0.8-0.1 1.7-0.2 2.5-0.3 3-0.4 5.9-0.8 8.9-1.1C725.8 408.9 737 364.2 737 320c0-141.4-114.6-256-256-256S225 178.6 225 320c0 140.4 113 285.9 253 288zM549.2 955.2s-0.1 0 0 0c-1.9-1.6-3.6-3.1-5.4-4.7l-0.4-0.4c-1.6-1.5-3.2-2.9-4.8-4.4-0.3-0.3-0.6-0.5-0.8-0.8-1.8-1.7-3.6-3.4-5.3-5.2-26.4-26.4-47.2-57.2-61.7-91.5-15-35.5-22.7-73.3-22.7-112.1 0-2.3 0-4.5 0.1-6.8 0-0.8 0-1.5 0.1-2.3 0-1.5 0.1-3 0.2-4.4 0-0.9 0.1-1.9 0.1-2.8 0.1-1.3 0.2-2.6 0.2-3.9 0.1-1 0.1-2 0.2-3l0.3-3.6c0.1-1.1 0.2-2.1 0.3-3.2 0.1-1.1 0.2-2.2 0.4-3.2 0.1-1.2 0.3-2.3 0.4-3.5 0-0.3 0.1-0.6 0.1-0.9 0.4-3.3 0.9-6.6 1.5-9.9 0.1-0.5 0.2-1 0.2-1.5 0.3-1.6 0.6-3.1 0.8-4.7 0.1-0.5 0.2-1.1 0.3-1.6 0.3-1.6 0.6-3.2 1-4.7 0.1-0.5 0.2-0.9 0.3-1.4 0.4-1.7 0.7-3.4 1.1-5 0.1-0.2 0.1-0.4 0.2-0.7 2.3-9.7 5.2-19.3 8.5-28.7C188 645 64 771.7 64 960h491c-2-1.6-3.9-3.2-5.8-4.8zM922.7 736c0-23.5 15.8-43.3 37.3-49.3-5.9-26.8-16.4-51.8-30.8-74.2-7.8 4.4-16.4 6.5-25.1 6.5-13.1 0-26.2-5-36.2-15-16.6-16.6-19.4-41.7-8.5-61.2-22.4-14.3-47.4-24.9-74.2-30.8-6 21.5-25.8 37.3-49.3 37.3s-43.3-15.8-49.3-37.3c-26.8 5.9-51.8 16.4-74.2 30.8 11 19.5 8.1 44.6-8.5 61.2-10 10-23.1 15-36.2 15-8.6 0-17.3-2.2-25.1-6.5-14.3 22.4-24.9 47.4-30.8 74.2 21.5 6 37.3 25.8 37.3 49.3s-15.8 43.3-37.3 49.3c5.9 26.8 16.4 51.8 30.8 74.2 7.8-4.4 16.4-6.5 25.1-6.5 13.1 0 26.2 5 36.2 15 16.6 16.6 19.4 41.7 8.5 61.2 22.4 14.3 47.4 24.9 74.2 30.8 6-21.5 25.8-37.3 49.3-37.3s43.3 15.8 49.3 37.3c26.8-5.9 51.8-16.4 74.2-30.8-11-19.5-8.1-44.6 8.5-61.2 10-10 23.1-15 36.2-15 8.6 0 17.3 2.2 25.1 6.5 14.3-22.4 24.9-47.4 30.8-74.2-21.5-6-37.3-25.8-37.3-49.3zM736 848c-61.9 0-112-50.1-112-112s50.1-112 112-112 112 50.1 112 112-50.1 112-112 112z" p-id="1922"></path></svg>