<?xml version="1.0" standalone="no"?><!DOCTYPE svg PUBLIC "-//W3C//DTD SVG 1.1//EN" "http://www.w3.org/Graphics/SVG/1.1/DTD/svg11.dtd"><svg t="1587867360339" class="icon" viewBox="0 0 1024 1024" version="1.1" xmlns="http://www.w3.org/2000/svg" p-id="3464" xmlns:xlink="http://www.w3.org/1999/xlink" width="200" height="200"><defs><style type="text/css"></style></defs><path d="M362.410667 128h360.832c17.578667 0 31.872 13.525333 31.872 29.824 0 16.256-14.293333 29.781333-31.872 29.781333H362.410667c-76.544 0-128.256 52.565333-128.256 130.176v381.781334c0 68.224 44.245333 136.832 128.256 136.832h360.832c17.578667 0 31.872 13.525333 31.872 29.781333 0 16.298667-14.293333 29.824-31.872 29.824H362.410667C253.098667 896 170.666667 811.434667 170.666667 699.562667V317.781333C170.666667 208.426667 251.306667 128 362.410667 128z m-0.426667 354.176h531.285333c17.578667 0 31.872 13.525333 31.872 29.824 0 16.298667-14.293333 29.824-31.872 29.824H361.941333c-17.578667 0-31.872-13.525333-31.872-29.824 0-16.298667 14.293333-29.824 31.872-29.824zM726.912 320c8.149333 0 16.298667 2.858667 22.528 8.618667l179.84 166.4a27.946667 27.946667 0 0 1 0 41.642666l-179.84 166.4a33.706667 33.706667 0 0 1-45.056 0 27.946667 27.946667 0 0 1 0-41.728l157.269333-145.493333-157.269333-145.493333a27.946667 27.946667 0 0 1 0-41.728 33.152 33.152 0 0 1 22.528-8.661334z" fill="#C6C6C6" p-id="3465"></path></svg>